<?xml version="1.0" encoding="UTF-8"?>
<svg id="svg5" xmlns="http://www.w3.org/2000/svg" viewBox="0 0 708.23 267.35">
  <defs>
    <style>
      .cls-1 {
        fill: none;
        stroke-width: 4px;
      }

      .cls-1, .cls-2, .cls-3 {
        isolation: isolate;
      }

      .cls-1, .cls-3 {
        font-family: Impact, Impact;
        font-size: 171.75px;
      }

      .cls-1, .cls-4 {
        stroke: #000;
        stroke-miterlimit: 10;
      }

      .cls-5 {
        letter-spacing: 0em;
      }

      .cls-6 {
        letter-spacing: 0em;
      }

      .cls-7 {
        letter-spacing: 0em;
      }

      .cls-8 {
        letter-spacing: -.02em;
      }

      .cls-9 {
        letter-spacing: -.06em;
      }

      .cls-10 {
        letter-spacing: -.03em;
      }

      .cls-11 {
        font-family: Chalkduster, Chalkduster;
        font-size: 54.11px;
      }

      .cls-12 {
        letter-spacing: 0em;
      }

      .cls-13 {
        letter-spacing: .02em;
      }

      .cls-14 {
        letter-spacing: .04em;
      }

      .cls-15 {
        letter-spacing: .01em;
      }
    </style>
  </defs>
  <path id="path492-8" class="cls-4" d="M66.98,1.21c-.06,0-.11.01-.15.02-.08.02-.14.04-.22.08-.15.07-.33.16-.55.29-.44.26-1.03.64-1.72,1.11-1.38.94-3.15,2.22-4.87,3.54-3.62,2.78-10.69,9.25-13.42,12.29-11.47,12.77-16.85,27.79-14.93,41.78.21,1.54.81,4.59,1.36,6.83.81,3.36,1,4.66,1.12,7.82.16,4.29-.11,6.68-1.19,10.63l-.11.38-.08-1.97c-.24-6.09-1.38-10.36-4.34-16.32-.88-1.78-2.44-4.45-3.84-6.69-.7-1.12-1.35-2.14-1.87-2.87-.26-.37-.49-.67-.67-.88-.09-.11-.17-.2-.25-.27-.04-.04-.08-.06-.13-.1-.03-.02-.06-.03-.1-.04-.02,0-.04-.02-.06-.02-.03,0-.08-.01-.09-.01l-.15.03-.1.06-.05.05s-.02.03-.03.04c-.03.05-.03.08-.04.11-.02.06-.03.12-.04.19-.02.14-.04.32-.06.55-.04.45-.07,1.08-.1,1.75-.35,10.7-3.25,18.37-11.76,31.1-1.65,2.47-3.52,5.4-4.19,6.59-6.47,11.48-4.69,25.97,4.65,38.34,5.31,7.03,11.86,12.15,20.86,16.3,4.26,1.97,6.94,2.96,13.47,4.98h.05c2.37.74,3.85,1.2,4.69,1.43.42.12.68.18.86.2h.14s.1,0,.11,0c0,0,.08-.03.09-.03,0,0,.1-.08.1-.09l.09-.14v-.16s-.02-.11-.02-.11c0,0-.02-.05-.03-.06-.05-.07-.09-.08-.12-.11,0,0-.07-.05-.12-.09-.05-.03-.12-.07-.2-.12-.17-.11-.41-.25-.7-.43-.58-.35-1.37-.83-2.22-1.33-6.83-4.09-10.79-7.8-14.04-13.14-4.96-8.13-5.16-18.69-.53-26.99,1.5-2.7,2.94-4.54,6.07-7.8,5.06-5.28,7.92-8.97,10.45-13.46,5.15-9.15,6.41-18.69,3.58-27.4-.03-.09-.05-.17-.08-.26.21.14.4.26.7.5.88.68,2.11,1.7,3.41,2.84,2.61,2.27,5.59,5.04,6.98,6.6,3.77,4.21,6.73,8.62,8.81,13.16,3.47,7.56,4.3,14.45,2.69,22.36-.73,3.58-1.12,4.41-4.5,9.55-.28.43-.44.66-.52.9,0,.03-.02.06-.02.11,0,.02-.01.05-.01.08s.02.1.02.11c0,0,.07.14.08.14l.14.1.14.03s.07,0,.1,0c.21-.05.25-.11.36-.2.43-.36,1.25-1.24,2.51-2.67,4.35-4.95,7.65-9.96,8.64-13.26.12-.4.24-.77.34-1.07.09.15.15.28.27.5.36.69.86,1.69,1.41,2.84,1.09,2.3,2.4,5.22,3.35,7.54,1.76,4.28,3.13,8.82,3.38,11.07.4,3.59-.49,8.9-2.1,12.5-2.65,5.93-8.04,11.16-16.31,15.75-.75.42-1.31.73-1.7.96-.19.11-.34.21-.45.29-.06.04-.1.07-.15.12-.02.02-.05.05-.08.09-.01.02-.03.05-.04.08s-.03.1-.03.11c0,0,0,.15.01.15,0,0,.07.15.08.15,0,0,.1.08.11.09,0,0,.06.03.09.04.1.03.15.02.22.02.13,0,.27-.03.45-.06.37-.07.9-.2,1.61-.38,10.07-2.44,20.74-7.41,28.16-13.14,1.19-.92,2.4-1.84,2.67-2.04.67-.51,2.08-1.95,3.55-3.54s2.97-3.3,3.71-4.3c3.36-4.53,5.76-9.54,7.06-14.73.85-3.4.93-11.8.13-15.09-1.98-8.12-5.02-14.35-12.24-25.15-9.01-13.49-11.21-18.84-12-29.18-.05-.68-.12-1.29-.19-1.73-.04-.22-.07-.39-.11-.53-.02-.07-.04-.13-.09-.2-.01-.02-.03-.04-.05-.06-.02-.02-.08-.08-.09-.09l-.18-.05-.2.04c-.13.07-.16.12-.2.18-.05.06-.09.13-.14.22-.1.16-.21.38-.33.63-.25.51-.56,1.2-.88,1.96-.65,1.52-1.37,3.33-1.79,4.62-1.41,4.31-1.78,6.63-1.79,11.21,0,1.15.02,2.28.05,3.16.02.44.04.82.06,1.12,0,.11.02.15.03.24-.03-.04-.04-.05-.08-.09-.41-.5-.95-1.2-1.52-1.97-1.16-1.56-3.86-4.85-6.03-7.35-5.34-6.16-7.73-9.46-10.55-14.52-2.76-4.97-3.93-7.71-5.2-12.11-1.38-4.79-1.82-8.36-1.67-13.74.14-5.07.67-7.94,2.18-12.05.47-1.27,1.2-3.01,1.88-4.49.34-.74.67-1.42.94-1.94.27-.52.52-.91.55-.95.11-.12.18-.25.23-.4.04-.15.05-.39-.14-.56-.02-.01-.14-.07-.14-.08,0,0-.08-.02-.11-.02h0Z"/>
  <g class="cls-2">
    <text class="cls-3" transform="translate(123.34 155.8)"><tspan x="0" y="0">P3Markt</tspan></text>
    <text class="cls-1" transform="translate(123.34 155.8)"><tspan x="0" y="0">P3Markt</tspan></text>
  </g>
  <text class="cls-11" transform="translate(97.77 226.81)"><tspan class="cls-7" x="0" y="0">A</tspan><tspan class="cls-8" x="40.06" y="0">l</tspan><tspan class="cls-9" x="64.63" y="0">l</tspan><tspan class="cls-13" x="87.05" y="0">e</tspan><tspan x="121.85" y="0">s Selb</tspan><tspan class="cls-12" x="293.38" y="0">e</tspan><tspan class="cls-14" x="326.39" y="0">r</tspan><tspan class="cls-5" x="357.24" y="0">m</tspan><tspan class="cls-10" x="412.01" y="0">a</tspan><tspan class="cls-6" x="447.64" y="0">c</tspan><tspan x="481.72" y="0">h</tspan><tspan class="cls-15" x="515.15" y="0">e</tspan><tspan x="549.29" y="0">n!</tspan></text>
</svg>